<?xml version="1.0" encoding="UTF-8"?>
<svg version="1.1" xmlns="http://www.w3.org/2000/svg" width="32" height="32">
<path d="M0 0 C1.32 0 2.64 0 4 0 C4.33 0.66 4.66 1.32 5 2 C5.66 2 6.32 2 7 2 C7 1.34 7 0.68 7 0 C8.32 0 9.64 0 11 0 C11 1.32 11 2.64 11 4 C10.67 4.33 10.34 4.66 10 5 C10.99 5 11.98 5 13 5 C13 4.34 13 3.68 13 3 C16.68890899 4.22963633 19.64361605 6.03683203 23 8 C23 8.66 23 9.32 23 10 C24.32 10.66 25.64 11.32 27 12 C27 13.32 27 14.64 27 16 C26.34 16 25.68 16 25 16 C25.04125 17.258125 25.0825 18.51625 25.125 19.8125 C25.2390374 23.29064073 25.05925681 23.91111478 23 27 C22.34 26.67 21.68 26.34 21 26 C21.33 26.99 21.66 27.98 22 29 C21 30 21 30 17.83984375 30.09765625 C16.55207031 30.08605469 15.26429687 30.07445313 13.9375 30.0625 C12.64714844 30.05347656 11.35679688 30.04445313 10.02734375 30.03515625 C9.02832031 30.02355469 8.02929688 30.01195313 7 30 C6.71125 28.783125 6.4225 27.56625 6.125 26.3125 C5.54329656 23.96520374 4.94035 21.85833126 4 19.625 C2.69252663 16.19288239 2.16163863 12.7256046 1.5625 9.109375 C1.376875 8.41328125 1.19125 7.7171875 1 7 C0.34 6.67 -0.32 6.34 -1 6 C-0.67 4.02 -0.34 2.04 0 0 Z M22 15 C23 17 23 17 23 17 Z M21 18 C22 20 22 20 22 20 Z M19 20 C20 23 20 23 20 23 Z " fill="#E19B99" transform="translate(3,1)"/>
<path d="M0 0 C1.32 0 2.64 0 4 0 C4.33 0.66 4.66 1.32 5 2 C5.66 2 6.32 2 7 2 C7 1.34 7 0.68 7 0 C8.32 0 9.64 0 11 0 C11 1.32 11 2.64 11 4 C9.35 4.33 7.7 4.66 6 5 C6.309375 5.66 6.61875 6.32 6.9375 7 C8.27404586 10.77377653 8.73750848 13.99700434 9 18 C8.34 18.66 7.68 19.32 7 20 C6.01 20 5.02 20 4 20 C3.80664062 19.07316406 3.61328125 18.14632813 3.4140625 17.19140625 C3.15367187 15.99386719 2.89328125 14.79632813 2.625 13.5625 C2.36976562 12.36753906 2.11453125 11.17257812 1.8515625 9.94140625 C1.57054687 8.97074219 1.28953125 8.00007812 1 7 C0.34 6.67 -0.32 6.34 -1 6 C-0.67 4.02 -0.34 2.04 0 0 Z " fill="#AB696D" transform="translate(3,1)"/>
<path d="M0 0 C0.61875 0.185625 1.2375 0.37125 1.875 0.5625 C4.04160178 1.23686176 4.04160178 1.23686176 6 0 C6 0.99 6 1.98 6 3 C6.66 3 7.32 3 8 3 C7.6875 4.9375 7.6875 4.9375 7 7 C6.01 7.33 5.02 7.66 4 8 C3.67 8.99 3.34 9.98 3 11 C3 10.01 3 9.02 3 8 C2.01 8 1.02 8 0 8 C0.495 9.0725 0.99 10.145 1.5 11.25 C2.88653911 14.25416808 3 15.45934895 3 19 C1.02 19 -0.96 19 -3 19 C-3.66 15.7 -4.32 12.4 -5 9 C-4.01 8.34 -3.02 7.68 -2 7 C-0.7811879 3.44327821 -0.7811879 3.44327821 0 0 Z " fill="#DBBDB9" transform="translate(13,12)"/>
<path d="M0 0 C1.65 0.33 3.3 0.66 5 1 C5 2.32 5 3.64 5 5 C4.34 5 3.68 5 3 5 C3.04125 6.258125 3.0825 7.51625 3.125 8.8125 C3.2390374 12.29064073 3.05925681 12.91111478 1 16 C0.34 15.67 -0.32 15.34 -1 15 C-0.67 15.99 -0.34 16.98 0 18 C-1 19 -1 19 -4.5625 19.0625 C-5.696875 19.041875 -6.83125 19.02125 -8 19 C-7.8125 16.625 -7.8125 16.625 -7 14 C-4.4375 12.6875 -4.4375 12.6875 -2 12 C-2 11.01 -2 10.02 -2 9 C-1.34 9 -0.68 9 0 9 C0 6.03 0 3.06 0 0 Z " fill="#F9B6C2" transform="translate(25,12)"/>
<path d="M0 0 C2.63306073 1.81022925 3.13142522 3.33498827 4 6.375 C4 7.695 4 9.015 4 10.375 C2.02 10.375 0.04 10.375 -2 10.375 C-2.66 7.075 -3.32 3.775 -4 0.375 C-2 -0.625 -2 -0.625 0 0 Z " fill="#E6DBDE" transform="translate(12,20.625)"/>
<path d="M0 0 C1.32 0 2.64 0 4 0 C4.33 0.66 4.66 1.32 5 2 C5.66 2 6.32 2 7 2 C7 1.34 7 0.68 7 0 C8.32 0 9.64 0 11 0 C11 1.32 11 2.64 11 4 C9.56656 4.53190541 8.12804633 5.05015258 6.6875 5.5625 C5.48673828 5.99755859 5.48673828 5.99755859 4.26171875 6.44140625 C2 7 2 7 -1 6 C-0.67 4.02 -0.34 2.04 0 0 Z " fill="#F3C2B2" transform="translate(3,1)"/>
<path d="M0 0 C0 0.66 0 1.32 0 2 C-0.66 2 -1.32 2 -2 2 C-2.1546875 2.928125 -2.1546875 2.928125 -2.3125 3.875 C-3 6 -3 6 -6 8 C-6.66 9.32 -7.32 10.64 -8 12 C-8.99 8.37 -9.98 4.74 -11 1 C-10.01 1 -9.02 1 -8 1 C-8 1.99 -8 2.98 -8 4 C-7.34 4 -6.68 4 -6 4 C-6 3.34 -6 2.68 -6 2 C-3 0 -3 0 0 0 Z " fill="#7A5155" transform="translate(24,19)"/>
<path d="M0 0 C0.99 0.33 1.98 0.66 3 1 C2.67 4.3 2.34 7.6 2 11 C0.865625 11.28875 -0.26875 11.5775 -1.4375 11.875 C-2.613125 12.24625 -3.78875 12.6175 -5 13 C-5.33 13.66 -5.66 14.32 -6 15 C-6 14.01 -6 13.02 -6 12 C-5.01 11.34 -4.02 10.68 -3 10 C-2.27034634 7.43717258 -2.27034634 7.43717258 -2 5 C-1.67 5 -1.34 5 -1 5 C-0.67 3.35 -0.34 1.7 0 0 Z " fill="#B96F6F" transform="translate(23,8)"/>
<path d="M0 0 C0.99 0.33 1.98 0.66 3 1 C2.01 2.98 1.02 4.96 0 7 C-1.32 7 -2.64 7 -4 7 C-3.6875 4.625 -3.6875 4.625 -3 2 C-2.01 1.34 -1.02 0.68 0 0 Z " fill="#EFE6E9" transform="translate(21,24)"/>
<path d="M0 0 C0.99 0.33 1.98 0.66 3 1 C3 2.65 3 4.3 3 6 C2.01 5.67 1.02 5.34 0 5 C0.33 5.99 0.66 6.98 1 8 C-0.32 8.33 -1.64 8.66 -3 9 C-1.125 2.25 -1.125 2.25 0 0 Z " fill="#C48893" transform="translate(24,22)"/>
<path d="M0 0 C1.65 0 3.3 0 5 0 C5 0.66 5 1.32 5 2 C5.66 2.33 6.32 2.66 7 3 C7 3.99 7 4.98 7 6 C2.25 4.125 2.25 4.125 0 3 C0 2.01 0 1.02 0 0 Z " fill="#F3B3A0" transform="translate(20,2)"/>
<path d="M0 0 C0.33 0.99 0.66 1.98 1 3 C1.66 3 2.32 3 3 3 C2.67 4.32 2.34 5.64 2 7 C1.34 7 0.68 7 0 7 C0 6.01 0 5.02 0 4 C-0.99 4 -1.98 4 -3 4 C-3.33 4.99 -3.66 5.98 -4 7 C-3.67 5.35 -3.34 3.7 -3 2 C-2.01 2 -1.02 2 0 2 C0 1.34 0 0.68 0 0 Z " fill="#F9ECE6" transform="translate(18,12)"/>
<path d="M0 0 C0.99 0.33 1.98 0.66 3 1 C2.67 2.32 2.34 3.64 2 5 C0.68 5.33 -0.64 5.66 -2 6 C-2.33 5.01 -2.66 4.02 -3 3 C-2.01 2.67 -1.02 2.34 0 2 C0 1.34 0 0.68 0 0 Z " fill="#7E5359" transform="translate(9,15)"/>
<path d="M0 0 C1.32 0 2.64 0 4 0 C4 3 4 3 2.625 4.6875 C1 6 1 6 -1 6 C-0.67 4.02 -0.34 2.04 0 0 Z " fill="#D4AFAC" transform="translate(3,1)"/>
<path d="M0 0 C3 1 3 1 5 3 C4.67 3.66 4.34 4.32 4 5 C2.35 5 0.7 5 -1 5 C-0.67 3.35 -0.34 1.7 0 0 Z " fill="#C27978" transform="translate(16,4)"/>
<path d="M0 0 C0.99 0 1.98 0 3 0 C3.33 1.32 3.66 2.64 4 4 C3.34 4 2.68 4 2 4 C1.67 4.99 1.34 5.98 1 7 C1 6.01 1 5.02 1 4 C0.34 3.67 -0.32 3.34 -1 3 C-0.67 2.01 -0.34 1.02 0 0 Z " fill="#F0CBC5" transform="translate(15,16)"/>
<path d="M0 0 C0.598125 0.20625 1.19625 0.4125 1.8125 0.625 C1.8125 1.615 1.8125 2.605 1.8125 3.625 C-0.4975 3.625 -2.8075 3.625 -5.1875 3.625 C-5.1875 2.965 -5.1875 2.305 -5.1875 1.625 C-2.1875 -0.375 -2.1875 -0.375 0 0 Z " fill="#EFA8A4" transform="translate(21.1875,7.375)"/>
</svg>
